<svg width="952" height="1103" viewBox="0 0 952 1103" fill="none" xmlns="http://www.w3.org/2000/svg">
<path d="M589.825 67.1326C622.255 4.34561 696.035 -19.5134 757.435 17.6716C778.765 30.5916 790.635 45.5856 802.235 67.2326C836.025 65.3516 871.865 91.4206 869.975 126.794C872.045 144.353 870.655 188.448 870.655 208.399L870.735 384.113C898.555 393.997 897.605 410.856 890.315 435.721C902.045 435.446 926.205 433.563 936.225 437.951C943.735 441.764 948.365 446.973 951.035 455.112C952.465 459.44 950.425 471.609 949.285 476.109C942.945 501.161 936.135 526.298 929.535 551.278L889.945 700.87L869.165 779.771C868.065 783.981 866.195 789.961 865.425 794.071C847.255 891.091 794.935 873.081 716.245 874.781C715.385 928.141 716.585 981.981 716.105 1035.34C715.905 1056.38 717.085 1082.12 716.035 1102.62C700.945 1096 678.665 1082.93 663.915 1074.44C647.355 1064.9 627.215 1054.57 611.345 1044.81C595.515 1036.32 580.035 1026.58 564.295 1017.86C559.145 1015 553.535 1011.85 548.845 1008.36C544.525 1006.57 539.135 1003.1 535.005 1000.62C524.855 994.761 514.755 988.801 504.705 982.751C436.985 1020.91 368.465 1064.03 300.785 1100.79C300.755 1090.84 299.995 1066.12 300.865 1057.23C300.085 1049.02 300.495 1033.6 300.475 1024.87C286.175 1033.16 272.105 1041.74 257.785 1050.09C250.165 1055.1 236.685 1060.35 236.295 1045.79C235.835 1028.27 236.295 1010.09 236.275 992.551L236.175 874.381C215.215 874.701 133.175 876.701 117.595 871.751C93.985 866.251 80.085 845.871 72.995 824.171L71.8051 818.831C68.9051 819.891 61.775 819.241 58.675 818.791C27.212 814.231 1.47703 785.051 0.509033 753.351C3.31998e-05 736.667 0.0330151 720.349 0.0280151 703.694L0.0150146 615.375L0.0410156 328.443L0.0300293 145.131L0 93.6706C0.012 64.4636 0.0940208 39.1436 26.822 20.1196C35.482 14.0636 45.505 10.2376 55.995 8.9806C67.095 7.5516 85.885 8.0676 97.755 8.0846L167.855 8.22059L237.625 8.06458C251.425 8.04258 264.225 7.42858 277.965 9.23258C297.275 11.7676 303.595 25.8686 313.705 40.2966C319.935 49.1926 325.975 58.0546 332.185 66.8926C377.975 65.3336 432.935 66.7416 479.445 66.7346L549.805 66.7286C561.435 66.7356 578.525 66.3556 589.825 67.1326Z" fill="#282C2E"/>
<path d="M890.315 435.721C902.045 435.446 926.205 433.563 936.225 437.951C943.735 441.764 948.365 446.973 951.035 455.112C952.465 459.44 950.425 471.609 949.285 476.109C942.945 501.161 936.135 526.298 929.535 551.278L889.945 700.87L869.165 779.771C868.065 783.981 866.195 789.961 865.425 794.071C847.255 891.091 794.935 873.081 716.245 874.781C715.385 928.141 716.585 981.981 716.105 1035.34C715.905 1056.38 717.085 1082.12 716.035 1102.62C700.945 1096 678.665 1082.93 663.915 1074.44C647.355 1064.9 627.215 1054.57 611.345 1044.81C609.755 1042.51 610.185 1043.73 609.905 1041.03L609.085 1041.12V1040.44C611.725 1041 611.645 1041.11 614.365 1040.26C612.195 1038.77 612.895 1039.73 611.965 1037.48C613.725 1036.97 620.965 1039.33 624.095 1039.88L624.955 1040.02C633.225 1044.38 650.375 1057.15 657.845 1055.1C659.635 1054.59 660.615 1053.59 662.075 1052.43C664.185 1048.58 664.005 1040.18 663.885 1035.59C662.055 964.721 665.555 892.631 663.335 821.901L664.595 819.871C670.455 818.871 678.415 819.631 684.565 819.491C704.095 819.051 727.535 821.461 746.595 817.611C763.785 814.141 781.855 802.351 791.365 787.541C804.235 773.281 809.465 738.671 815.715 719.051C819.955 700.57 825.445 681.022 830.465 662.726C839.195 623.241 853.285 577.195 863.345 537.062L867.115 523.922C870.615 508.576 879.275 474.15 884.405 459.913C885.545 453.803 887.055 447.799 888.525 441.761L890.315 435.721Z" fill="#EBC881"/>
<path d="M890.315 435.721C902.045 435.446 926.205 433.563 936.225 437.951C930.585 437.975 897.855 440.538 893.755 442.271C891.725 447.11 888.095 456.564 884.405 459.913C885.545 453.803 887.055 447.799 888.525 441.761L890.315 435.721Z" fill="#EBC881"/>
<path d="M830.465 662.726C832.575 669.753 826.495 685.449 825.475 694.275L826.625 691.754C824.955 699.697 821.095 712.966 815.715 719.051C819.955 700.57 825.445 681.022 830.465 662.726Z" fill="#EBC881"/>
<path d="M802.235 67.2325C836.025 65.3515 871.865 91.4205 869.975 126.794C872.045 144.353 870.655 188.448 870.655 208.399L870.735 384.113C852.365 383.768 832.985 384.101 814.535 384.144C815.325 363.334 814.825 339.486 814.825 318.489L814.815 205.018L814.795 146.246C814.785 133.631 815.425 112.19 812.895 100.754C812.815 98.3965 811.785 93.4215 811.345 90.8845C808.385 82.1895 806.195 75.5665 802.235 67.2325Z" fill="#EBC881"/>
<path d="M811.345 90.8845C815.695 92.6745 815.425 102.66 816.465 107.374C821.915 132.197 818.055 156.395 817.895 181.393L818.185 314.652C818.265 328.181 815.115 370.561 821.285 378.982C834.155 380.584 853.855 380.708 867.385 381.355L867.435 258.785C867.485 225.76 866.255 192.738 869.735 159.995C870.815 149.752 868.255 137.645 869.975 126.794C872.045 144.353 870.655 188.448 870.655 208.399L870.735 384.113C852.365 383.768 832.985 384.101 814.535 384.144C815.325 363.334 814.825 339.486 814.825 318.489L814.815 205.018L814.795 146.246C814.785 133.631 815.425 112.19 812.895 100.754C812.815 98.3965 811.785 93.4215 811.345 90.8845Z" fill="#EBC881"/>
<path d="M449.945 937.561C461.765 944.411 499.815 965.411 508.895 972.301C510.855 976.981 515.165 977.881 519.755 982.121L517.535 981.321C530.535 990.651 533.345 988.671 543.205 994.021C548.525 997.151 564.805 1005.78 567.185 1010.76C563.355 1013.27 559.135 1011.85 555.115 1010.42L551.075 1009C549.725 1008.52 550.285 1008.69 548.845 1008.36C544.525 1006.57 539.135 1003.1 535.005 1000.62C524.855 994.761 514.755 988.801 504.705 982.751C436.985 1020.91 368.465 1064.03 300.785 1100.79C300.755 1090.84 299.995 1066.12 300.865 1057.23C300.085 1049.02 300.495 1033.6 300.475 1024.87C311.175 1017.6 326.695 1010.73 338.075 1002.58L344.615 999.331C347.915 996.481 389.515 972.651 395.885 968.891C413.995 958.611 432.015 948.161 449.945 937.561Z" fill="#EBC881"/>
<path d="M344.615 999.331C341.235 1012.6 312.945 1020.63 302.415 1025.99C302.215 1032.97 302.605 1052 300.865 1057.23C300.085 1049.02 300.495 1033.6 300.475 1024.87C311.175 1017.6 326.695 1010.73 338.075 1002.58L344.615 999.331Z" fill="#EBC881"/>
<path d="M332.185 66.8926C377.975 65.3336 432.935 66.7416 479.445 66.7346L549.805 66.7286C561.435 66.7356 578.525 66.3556 589.825 67.1326C582.905 83.4286 578.255 97.2296 577.545 115.377C562.305 113.837 373.215 114.133 367.535 116.02C359.465 108.968 339.495 77.7396 332.185 66.8926Z" fill="#EBC881"/>
<path d="M235.155 819.271C236.945 824.911 236.215 865.661 236.175 874.381C215.215 874.701 133.175 876.701 117.595 871.751C93.9851 866.251 80.0851 845.871 72.9951 824.171L71.8052 818.831C82.7452 820.181 97.9251 819.6 109.145 819.51C151.055 819.17 193.285 820.251 235.155 819.271Z" fill="#EBC881"/>
<path d="M235.155 819.271C236.945 824.911 236.215 865.661 236.175 874.381C215.215 874.701 133.175 876.701 117.595 871.751C135.675 869.511 221.445 877.441 231.275 868.541C229.625 860.591 236.785 835.391 232.375 823.921C223.955 816.601 105.005 827.171 85.7351 821.651C80.8951 820.271 76.8551 821.081 72.9951 824.171L71.8052 818.831C82.7452 820.181 97.9251 819.6 109.145 819.51C151.055 819.17 193.285 820.251 235.155 819.271Z" fill="#EBC881"/>
<path d="M791.365 787.54C794.025 777.92 794.025 782.14 791.705 773.29C793.115 772.59 794.555 772.111 796.055 771.641C806.275 755.631 806.995 732.116 811.805 714.394C816.025 698.835 822.525 682.896 825.255 666.463C826.265 660.397 833.375 656.124 830.145 647.523C827.885 641.492 833.595 628.796 836.285 623.005L836.965 623.953L835.375 630.592L836.185 631.398C836.195 634.629 843.015 598.077 842.225 600.307C849.395 579.993 853.795 557.841 861.455 537.831L863.345 537.062C853.285 577.195 839.195 623.241 830.465 662.726C825.445 681.022 819.955 700.569 815.715 719.05C809.465 738.67 804.235 773.28 791.365 787.54Z" fill="#282C2E"/>
<path d="M812.895 100.754C815.425 112.19 814.785 133.631 814.795 146.246L814.815 205.018L814.825 318.489C814.825 339.486 815.325 363.334 814.535 384.144C807.935 377.006 811.535 352.631 811.665 342.316L812.355 256.585C812.505 203.443 809.705 154.258 812.895 100.754Z" fill="#282C2E"/>
<path d="M508.895 972.301C520.015 977.101 555.785 999.091 567.595 1006.11C581.645 1014.45 613.675 1031.69 624.955 1040.02L624.095 1039.88C620.965 1039.33 613.725 1036.97 611.965 1037.48C612.895 1039.73 612.195 1038.77 614.365 1040.26C611.645 1041.11 611.725 1041 609.085 1040.44V1041.12L609.905 1041.03C610.185 1043.73 609.755 1042.51 611.345 1044.81C595.515 1036.32 580.035 1026.58 564.295 1017.86C559.145 1015 553.535 1011.85 548.845 1008.36C550.285 1008.69 549.725 1008.52 551.075 1009L555.115 1010.42C559.135 1011.85 563.355 1013.27 567.185 1010.76C564.805 1005.78 548.525 997.151 543.205 994.021C533.345 988.671 530.535 990.651 517.535 981.321L519.755 982.121C515.165 977.881 510.855 976.981 508.895 972.301Z" fill="#EBC881"/>
<path d="M657.845 1055.1L656.815 1053.8C658.105 1052.86 660.225 1051.46 660.265 1049.96C660.475 1042.49 658.125 1032.16 658.475 1024.89C658.685 1016.02 660.635 1007.49 660.345 998.541C658.695 948.171 660.305 897.881 661.165 847.731C661.175 847.061 662.125 847.341 661.475 845.131C659.705 839.001 660.885 828.261 661.735 822.561L663.335 821.901C665.555 892.631 662.055 964.721 663.885 1035.59C664.005 1040.18 664.185 1048.58 662.075 1052.43C660.615 1053.59 659.635 1054.59 657.845 1055.1Z" fill="#282C2E"/>
<path d="M577.545 115.377L577.485 115.828C575.085 117.921 569.955 118.835 566.765 118.786C506.845 117.859 446.705 117.301 386.785 119.518C383.455 119.641 369.955 118.055 367.535 116.02C373.215 114.133 562.305 113.837 577.545 115.377Z" fill="#282C2E"/>
<path d="M71.8052 818.831C74.1252 817.731 78.8552 815.781 81.3152 815.911C120.635 817.911 159.705 816.281 198.985 814.631C206.055 814.341 230.905 814.961 236.045 818.271L235.155 819.271C193.285 820.251 151.055 819.171 109.145 819.511C97.9251 819.601 82.7452 820.181 71.8052 818.831Z" fill="#282C2E"/>
<path d="M867.115 523.922C863.395 506.636 872.755 494.287 875.045 478.568C877.475 461.892 880.765 456.355 886.675 441.673L888.525 441.761C887.055 447.799 885.545 453.803 884.405 459.913C879.275 474.15 870.615 508.576 867.115 523.922Z" fill="#282C2E"/>
<path d="M338.075 1002.58C338.655 995.791 370.415 982.461 377.295 976.571L376.255 974.65L377.245 973.371C381.835 971.891 391.765 968.2 395.885 968.89C389.515 972.65 347.915 996.481 344.615 999.331L338.075 1002.58Z" fill="#282C2E"/>
<path d="M609.085 66.7146C623.875 42.9636 645.155 26.0736 672.665 19.6016C698.785 13.3976 726.295 17.8436 749.125 31.9596C762.105 40.0726 775.195 53.2006 782.805 66.5426C792.765 83.3896 793.765 90.2136 797.505 108.674C801.625 112.72 801.215 132.023 801.275 138.526C801.665 197.722 801.625 256.92 801.145 316.116C801.035 328.788 803.875 374.974 798.775 383.184C793.785 384.7 776.095 384.036 769.925 384.003C766.465 386.447 765.335 386.349 760.945 386.32C727.635 386.1 694.515 386.265 661.255 387.454C650.245 387.847 636.745 386.354 625.165 386.329L455.655 386.369L349.365 386.654C338.485 386.586 328.855 387.762 317.895 386.949L318.405 386.774C290.375 385.806 261.215 386.52 233.115 386.453C223.105 386.43 190.835 390.676 182.585 389.554C175.775 393.25 174.205 395.878 168.485 400.845C155.935 420.174 150.385 453.138 144.365 476.49C145.595 480.24 143.005 496.543 142.765 501.901C142.525 507.341 135.115 520.511 133.365 526.255C129.535 538.806 127.015 559.378 122.995 571.06C121.325 571.999 120.565 572.552 118.705 573.052C115.045 585.235 111.275 603.986 107.255 614.815L104.985 625.527C105.725 635.14 104.095 656.65 94.8851 662.096L91.3851 673.973C90.2551 678.453 88.6851 685.59 87.1151 689.675C85.8851 694.888 79.5451 718.632 79.2751 721.429C76.5651 730.453 74.0351 738.565 72.1951 747.819L71.4951 752.671C70.3251 756.121 69.8751 759.081 71.7851 762.381L72.2551 764.051C71.7951 772.431 71.065 793.801 71.585 802.141C41.588 802.421 19.4881 783.361 17.2641 752.371C16.0691 735.725 17.0011 717.347 17.0381 700.563L17.0921 606.915L16.9761 306.389L16.9521 139.973C16.9301 118.377 16.8321 96.7906 17.0271 75.1966C17.1381 62.8616 18.6901 57.5816 24.5911 46.9956C39.3881 20.4486 70.6851 24.7756 96.5751 24.8266L166.455 24.9816L236.965 24.8196C290.475 24.6796 281.255 21.5286 310.655 65.7606C312.345 68.1256 316.425 73.4776 317.375 75.7626C324.235 83.9616 331.105 94.4316 336.795 103.512C341.615 109.805 347.555 119.845 352.605 124.787C357.285 124.068 369.435 128.821 375.845 126.95C378.315 126.226 381.085 126.724 383.665 127.116C381.435 128.027 377.615 128.6 375.145 129.069C380.315 130.411 388.095 129.239 393.375 128.334C398.915 127.384 405.435 127.955 411.095 127.931C429.945 127.85 448.495 128.74 467.315 129.267C479.395 129.605 582.955 129.685 587.245 127.615C595.275 123.733 589.335 103.868 592.535 96.4946C593.705 93.7866 595.785 90.9566 598.385 89.8796C601.655 81.0536 604.055 74.6756 609.085 66.7146Z" fill="#EBC881"/>
<path d="M71.585 802.141C41.588 802.421 19.4881 783.361 17.2641 752.371C16.0691 735.725 17.0011 717.347 17.0381 700.563L17.0921 606.915L16.9761 306.389L16.9521 139.973C16.9301 118.377 16.8321 96.7906 17.0271 75.1966C17.1381 62.8616 18.6901 57.5815 24.5911 46.9955C39.3881 20.4485 70.6851 24.7756 96.5751 24.8266L166.455 24.9816L236.965 24.8195C290.475 24.6795 281.255 21.5286 310.655 65.7606C305.455 67.7336 282.515 66.9046 275.455 66.8596L182.375 66.6955C164.575 66.6705 145.635 66.2496 127.975 67.1446C105.725 68.2716 73.7551 94.3035 72.9151 117.588C74.0451 131.704 73.315 154.473 73.335 169.148L73.3751 268.05L73.355 574.457L73.3151 649.213C73.2251 660.592 70.3851 690.964 76.6551 699.21C79.8851 700.297 78.2651 700.32 81.6651 698.686C83.0451 696.441 85.7151 691.142 87.1151 689.675C85.8851 694.888 79.5451 718.632 79.2751 721.429C76.5651 730.453 74.0351 738.565 72.1951 747.819L71.4951 752.671C70.3251 756.121 69.8751 759.081 71.7851 762.381L72.2551 764.051C71.7951 772.431 71.065 793.801 71.585 802.141Z" fill="#FFFFFE"/>
<path d="M72.9148 117.588C74.0448 131.704 73.3147 154.473 73.3347 169.148L73.3748 268.05L73.3548 574.457L73.3148 649.213C73.2248 660.592 70.3848 690.963 76.6548 699.209C79.8848 700.296 78.2648 700.32 81.6648 698.686C83.0448 696.441 85.7148 691.142 87.1148 689.675C85.8848 694.888 79.5448 718.631 79.2748 721.428C76.5648 730.452 74.0348 738.564 72.1948 747.818C71.2848 735.108 71.7848 720.587 71.6548 707.573L71.5148 614.933L71.5548 351.69L71.5048 191.068C71.5048 179.582 70.6548 125.369 72.9148 117.588Z" fill="#EBC881"/>
<path d="M609.085 66.7146C623.875 42.9636 645.155 26.0736 672.665 19.6016C698.785 13.3976 726.295 17.8436 749.125 31.9596C762.105 40.0726 775.195 53.2006 782.805 66.5426C773.325 67.8146 740.345 66.5976 729.365 66.5776L609.085 66.7146Z" fill="#FFFFFE"/>
<path d="M797.505 108.674C801.625 112.72 801.215 132.023 801.275 138.526C801.665 197.722 801.625 256.92 801.145 316.116C801.035 328.788 803.875 374.974 798.775 383.184C793.785 384.7 776.095 384.036 769.925 384.003C766.465 386.447 765.335 386.349 760.945 386.32C727.635 386.1 694.515 386.265 661.255 387.454C650.245 387.847 636.745 386.354 625.165 386.329L455.655 386.369L349.365 386.654C338.485 386.586 328.855 387.762 317.895 386.949L318.405 386.774C290.375 385.806 261.215 386.52 233.115 386.453C223.105 386.43 190.835 390.676 182.585 389.554C175.775 393.25 174.205 395.878 168.485 400.845C168.385 399.33 168.225 398.748 169.235 397.455C184.935 377.314 212.615 381.343 235.745 380.966C270.525 380.585 305.315 380.57 340.105 380.922L647.785 380.682L738.165 380.979C756.245 381.053 776.775 381.973 794.555 380.192C795.975 366.994 794.555 335.17 794.555 320.667L796.035 164.324C796.445 142.509 794.395 133.444 797.015 109.609L797.505 108.674Z" fill="#EBC881"/>
<path d="M182.585 389.554C187.715 386.81 194.745 384.39 200.545 384.253C222.165 383.746 244.235 383.979 265.845 384.001L387.665 384.039L769.925 384.003C766.465 386.447 765.335 386.349 760.945 386.32C727.635 386.1 694.515 386.265 661.255 387.454C650.245 387.847 636.745 386.354 625.165 386.329L455.655 386.369L349.365 386.654C338.485 386.586 328.855 387.762 317.895 386.949L318.405 386.774C290.375 385.806 261.215 386.52 233.115 386.453C223.105 386.43 190.835 390.676 182.585 389.554Z" fill="#282C2E"/>
<path d="M797.505 108.674C801.625 112.72 801.215 132.023 801.275 138.526C801.665 197.722 801.625 256.92 801.145 316.116C801.035 328.788 803.875 374.974 798.775 383.184C797.155 375.202 798.045 326.557 798.065 314.416L797.915 164.842C797.945 153.465 799.025 118.565 797.015 109.609L797.505 108.674Z" fill="#282C2E"/>
<path d="M352.605 124.787C357.285 124.068 369.435 128.821 375.845 126.95C378.315 126.226 381.085 126.724 383.665 127.116C381.435 128.027 377.615 128.6 375.145 129.069C380.315 130.411 388.095 129.239 393.375 128.334C398.915 127.384 405.435 127.955 411.095 127.931C429.945 127.85 448.495 128.74 467.315 129.267C479.395 129.605 582.955 129.685 587.245 127.615C595.275 123.733 589.335 103.868 592.535 96.4945C593.705 93.7865 595.785 90.9565 598.385 89.8795C596.285 99.1635 593.595 125.176 590.255 129.751C580.755 132.072 554.855 131.358 543.445 131.35L470.725 131.259L404.775 131.315C390.945 131.341 362.235 134.359 352.605 124.787Z" fill="#282C2E"/>
<path d="M144.365 476.49C145.595 480.24 143.005 496.543 142.765 501.901C142.525 507.341 135.115 520.511 133.365 526.255C129.535 538.806 127.015 559.378 122.995 571.06C121.325 571.999 120.565 572.552 118.705 573.052C126.325 541.861 135.635 507.4 144.365 476.49Z" fill="#282C2E"/>
<path d="M91.3852 673.973C89.8052 664.994 94.0952 641.232 97.9352 632.516C100.525 626.611 103.135 621.916 105.645 614.835L107.255 614.815L104.985 625.527C105.725 635.14 104.095 656.65 94.8852 662.096L91.3852 673.973Z" fill="#EBC881"/>
<path d="M104.985 625.527C105.725 635.14 104.095 656.65 94.8853 662.096C98.1153 649.869 101.485 637.678 104.985 625.527Z" fill="#282C2E"/>
<path d="M317.375 75.7626C324.235 83.9616 331.105 94.4316 336.795 103.512C333.435 102.686 326.025 95.2866 323.835 92.1216C320.245 86.9346 319.075 81.8356 317.375 75.7626Z" fill="#EBC881"/>
<path d="M648.995 136.183C648.905 126.92 648.335 118.459 651.685 109.574C658.945 90.3246 675.125 78.3786 695.865 78.3686C708.375 78.3326 720.375 83.3136 729.185 92.1956C738.455 101.457 743.615 114.054 743.505 127.157C743.325 140.936 737.195 152.623 727.395 162.048C726.485 162.921 725.565 163.779 724.625 164.624L736.185 215.51C737.165 219.856 741.005 235.86 741.255 239.626L743.515 245.983L744.815 246.262C753.775 264.994 740.335 267.712 725.625 267.511C714.495 267.359 650.665 272.18 646.415 262.633C640.695 249.807 654.145 213.206 657.255 199.024L657.535 197.763L659.425 197.854C661.385 191.958 662.985 183.229 664.335 176.971C663.945 175.801 663.635 172.856 663.805 171.819C665.015 164.1 657.865 162.154 653.055 156.116C649.525 151.689 648.375 141.775 648.995 136.183Z" fill="#282C2E"/>
<path d="M676.645 102.031C679.885 97.9546 687.045 96.0486 691.965 95.0686C695.515 98.5016 698.055 95.8156 703.825 98.4096C715.475 103.637 723.185 115.645 724.795 128.021C725.215 131.297 721.645 136.498 723.065 140.93C717.535 151.128 713.155 150.792 706.455 157.917C711.945 185.398 719.575 221.032 726.565 248.105C716.115 248.127 685.765 248.893 676.575 247.784C674.045 247.12 671.525 246.405 669.015 245.64C667.595 243.307 667.745 244.484 668.235 242.054L671.385 243.365C672.315 221.741 675.335 218.884 679.295 200.172C683.045 182.431 683.055 174.407 689.355 156.158C666.235 135.189 659.885 129.712 676.485 102.672C676.535 102.458 676.595 102.245 676.645 102.031Z" fill="#EBC881"/>
<path d="M743.515 245.983L744.815 246.262C753.775 264.994 740.335 267.712 725.625 267.511C714.495 267.359 650.665 272.18 646.415 262.633C640.695 249.807 654.145 213.206 657.255 199.024L657.535 197.763L659.425 197.854C657.365 208.565 654.275 220.301 652.435 230.683C654.465 238.314 650.745 252.232 652.985 258.307C662.315 263.189 731.785 264.572 741.945 260.019C745.145 253.271 738.875 247.046 741.255 239.626L743.515 245.983Z" fill="#EBC881"/>
<path d="M652.435 230.683C654.465 238.314 650.745 252.232 652.985 258.307C662.315 263.189 731.785 264.572 741.945 260.019C745.145 253.271 738.875 247.046 741.255 239.626L743.515 245.983C743.065 252.595 748.335 257.215 741.595 263.344C734.345 266.286 668.995 264.817 657.435 264.347C654.375 264.223 650.155 263.284 647.935 260.405C646.025 251.941 650.245 239.397 652.435 230.683Z" fill="#282C2E"/>
<path d="M676.645 102.031C676.595 102.245 676.535 102.458 676.485 102.672C659.885 129.712 666.235 135.189 689.355 156.158C683.055 174.407 683.045 182.431 679.295 200.172C675.335 218.884 672.315 221.741 671.385 243.365L668.235 242.054C667.745 244.484 667.595 243.307 669.015 245.64C671.525 246.405 674.045 247.12 676.575 247.784C672.455 248.066 671.025 248.101 666.935 247.643C663.325 239.928 687.995 166.693 683.565 156.088L681.775 156.548C676.785 155.245 668.465 146.375 665.045 142.386L665.795 132.672C664.565 119.859 666.345 110.722 676.645 102.031Z" fill="#EBC881"/>
<path d="M665.795 132.672C670.015 145.169 673.205 147.826 683.565 156.088L681.775 156.548C676.785 155.245 668.465 146.375 665.045 142.386L665.795 132.672Z" fill="#282C2E"/>
<path d="M665.045 142.386C668.465 146.375 676.785 155.245 681.775 156.548L679.545 159.135C675.285 160.98 671.135 160.418 666.395 160.326C663.315 157.17 661.345 154.654 657.175 153.067C656.915 152.85 654.715 149.64 654.345 149.124C654.915 146.286 654.885 146.353 656.275 143.825C660.035 141.691 660.385 142.396 665.045 142.386Z" fill="#282C2E"/>
<path d="M691.965 95.0685C701.265 94.3575 708.365 95.8625 715.675 102.078C722.135 107.604 726.095 115.492 726.675 123.969C727.095 129.849 725.845 135.729 723.065 140.929C721.645 136.497 725.215 131.296 724.795 128.02C723.185 115.644 715.475 103.636 703.825 98.4095C698.055 95.8155 695.515 98.5015 691.965 95.0685Z" fill="#EBC881"/>
<path d="M648.995 136.183C650.745 140.61 652.415 144.772 654.345 149.124C654.715 149.64 656.915 152.85 657.175 153.067C660.595 158.33 662.735 160.043 667.405 164.319L664.335 176.971C663.945 175.801 663.635 172.856 663.805 171.819C665.015 164.1 657.865 162.154 653.055 156.116C649.525 151.689 648.375 141.775 648.995 136.183Z" fill="#EBC881"/>
<path d="M312.795 247.337C313.075 238.569 318.545 227.3 324.775 220.921C331.965 213.572 341.825 209.446 352.105 209.483C366.145 209.41 372.875 214.624 382.275 224.005C398.605 229.861 396.015 256.303 393.635 270.092L392.205 270.783C389.265 284.453 388.255 289.032 378.905 299.888C377.615 301.387 372.705 305.835 372.195 306.679C370.955 308.748 369.085 309.924 367.165 311.434C369.145 311.611 370.625 311.038 372.645 310.568C367.355 317.114 337.525 316.246 331.075 311.1L331.525 310.548L339.905 312.684L339.705 311.89C335.335 310.5 332.535 310.113 330.905 305.785C313.365 290.342 308.325 270.037 312.795 247.337Z" fill="#282C2E"/>
<path d="M330.905 305.785C313.365 290.342 308.325 270.037 312.795 247.337C313.905 263.367 313.805 274.153 322.495 289.337C325.465 294.514 330.235 300.359 332.345 305.788L330.905 305.785Z" fill="#282C2E"/>
<path d="M330.905 305.785L332.345 305.788C344.575 314.631 359.125 311.545 372.195 306.679C370.955 308.748 369.085 309.924 367.165 311.434C369.145 311.611 370.625 311.038 372.645 310.568C367.355 317.114 337.525 316.246 331.075 311.1L331.525 310.548L339.905 312.684L339.705 311.89C335.335 310.5 332.535 310.113 330.905 305.785Z" fill="#EBC881"/>
<path d="M382.275 224.005C398.605 229.861 396.015 256.303 393.635 270.092L392.205 270.783C392.785 250.241 392.585 242.137 382.275 224.005Z" fill="#EBC881"/>
<path d="M376.535 266.824C374.245 280.361 369.925 296.44 353.255 297.2C347.695 297.753 340.905 295.017 337.015 290.907C323.405 276.679 323.865 242.167 338.475 228.689C350.075 217.978 361.895 224.118 370.545 234.408C381.445 238.978 382.855 257.574 376.535 266.824Z" fill="#EBC881"/>
<path d="M370.545 234.408C381.445 238.978 382.855 257.574 376.535 266.824C376.995 253.026 376.265 246.825 370.545 234.408Z" fill="#282C2E"/>
<path d="M409.845 231.893C406.385 215.113 454.125 193.221 467.895 215.819C474.525 226.193 476.245 223.016 483.155 239.51L484.585 239.02C486.165 243.324 486.405 244.511 487.055 249.068L487.685 246.442L488.505 246.158C491.985 255.161 489.895 259.246 486.395 268.107L485.585 266.156C484.395 274.634 483.245 280.112 480.045 287.985L479.625 289.052C475.425 296.925 470.345 303.293 462.295 307.333C442.745 317.135 419.735 309.254 410.355 289.527C401.375 270.638 403.435 250.978 409.845 231.893Z" fill="#282C2E"/>
<path d="M421.135 249.059C424.645 229.226 434.245 220.773 454.825 225.056C455.815 226.111 459.905 230.206 460.425 230.982C467.685 239.374 469.095 248.994 469.875 259.826C469.325 265.384 468.935 271.626 467.405 276.928L466.205 281.011C455.065 307.078 429.805 301.286 422.545 276.559C419.785 267.146 420.485 258.725 421.135 249.059Z" fill="#EBC881"/>
<path d="M460.425 230.982C467.685 239.374 469.095 248.994 469.875 259.826C469.325 265.384 468.935 271.626 467.405 276.928C467.195 276.034 466.315 265.311 466.205 263.472C465.465 250.633 463.805 243.158 460.425 230.982Z" fill="#EBC881"/>
<path d="M469.875 259.826L472.345 262.645C475.645 263.411 479.095 262.1 482.615 261.335C483.645 260.097 483.965 259.692 485.525 259.248L485.585 266.156C484.395 274.634 483.245 280.113 480.045 287.986L479.625 289.052C478.665 281.687 473.025 281.015 466.205 281.011L467.405 276.928C468.935 271.626 469.325 265.384 469.875 259.826Z" fill="#282C2E"/>
<path d="M421.135 249.059C420.535 247.413 418.685 241.614 418.815 240.215C420.295 224.306 442.845 211.371 454.825 225.056C434.245 220.773 424.645 229.226 421.135 249.059Z" fill="#282C2E"/>
<path d="M409.845 231.893C406.385 215.113 454.125 193.221 467.895 215.819C443.255 204.834 424.005 207.698 409.845 231.893Z" fill="#EBC881"/>
<path d="M483.155 239.51L484.585 239.021C486.165 243.325 486.405 244.511 487.055 249.068L487.685 246.443L488.505 246.159C491.985 255.162 489.895 259.246 486.395 268.107L485.585 266.156L485.525 259.247C485.425 252.613 484.195 246.067 483.155 239.51Z" fill="#EBC881"/>
<path d="M226.705 225.755C233.065 218.827 236.565 215.779 245.705 212.297C261.935 206.116 290.885 209.326 296.615 228.864C303.905 253.757 277.635 270.767 263.005 286.107C260.125 289.12 256.035 292.054 254.055 295.828L255.315 296.941C270.325 296.341 286.065 296.601 301.145 296.63C301.455 301.048 301.895 305.821 301.935 310.222L255.305 310.407C249.665 310.427 236.015 311.176 231.545 309.68C218.885 294.811 285.535 257.695 281.705 237.894C277.355 215.394 251.005 221.65 238.155 234.868C234.325 231.881 230.505 228.789 226.705 225.755Z" fill="#282C2E"/>
<path d="M255.315 296.941C270.325 296.341 286.065 296.601 301.145 296.63C301.455 301.048 301.895 305.821 301.935 310.222L255.305 310.407C257.965 309.89 258.965 309.685 261.495 308.764C258.975 306.914 254.925 309.061 251.285 307.298C261.415 306.924 270.085 306.76 280.055 304.993C281.895 304.667 291.385 305.552 296.195 305.037L296.425 303.872C290.885 298.185 265.045 304.79 255.315 296.941Z" fill="#282C2E"/>
<path d="M139.355 210.757L177.255 210.799C181.685 225.121 176.865 258.307 178.225 275.512C179.075 286.141 183.305 300.637 181.195 309.962C177.205 314.685 162.755 313.662 157.725 311.073C152.155 305.182 159.615 278.613 158.725 269.741C157.655 258.978 160.465 236.857 156.535 227.32C152.265 225.796 149.365 226.155 146.395 224.732C144.005 224.499 143.115 224.392 140.705 223.846C138.195 220.12 139.175 215.717 139.355 210.757Z" fill="#282C2E"/>
<path d="M177.255 210.799C181.685 225.121 176.865 258.307 178.225 275.512C179.075 286.141 183.305 300.637 181.195 309.962C177.205 314.685 162.755 313.662 157.725 311.073C152.155 305.182 159.615 278.613 158.725 269.741C157.655 258.978 160.465 236.857 156.535 227.32C152.265 225.796 149.365 226.155 146.395 224.732L152.125 224.264C155.155 224.276 158.175 223.83 160.475 225.585C161.165 243.052 160.555 261.348 160.705 278.912C160.745 282.716 160.905 300.008 160.435 302.58C160.455 305.274 160.215 306.579 161.515 308.947C165.495 311.519 171.655 310.412 176.825 310.206L176.615 246.032C176.585 236.664 176.025 219.287 177.255 210.799Z" fill="#EBC881"/>
<path d="M139.355 210.757L177.255 210.799C176.025 219.287 176.585 236.664 176.615 246.032L176.825 310.206C171.655 310.412 165.495 311.519 161.515 308.947C160.215 306.579 160.455 305.274 160.435 302.58C161.285 304.402 161.865 305.122 163.005 306.763C166.715 308.921 170.105 308.378 174.525 308.336C174.365 276.89 174.805 244.505 174.315 213.274C165.645 212.988 151.915 216.982 144.645 215.262C144.645 217.439 144.855 218.595 143.855 220.535L142.905 219.33C143.225 215.303 142.595 216.565 144.795 213.566L142.515 213.448C141.235 217.403 140.985 216.286 141.865 219.776C147.695 224.855 152.175 221.775 157.765 223.113C155.905 223.302 155.115 223.342 153.315 223.89L152.125 224.264L146.395 224.732C144.005 224.499 143.115 224.392 140.705 223.846C138.195 220.12 139.175 215.717 139.355 210.757Z" fill="#282C2E"/>
<path d="M536.225 268.65C545.145 258.08 585.445 209.317 597.185 212.878C604.435 219.982 596.835 226.969 591.715 232.123C583.965 240.691 545.045 287.278 537.415 287.604C532.905 287.797 529.155 283.634 526.015 280.861L525.085 281.12C519.275 278.974 512.185 272.794 507.885 268.337C508.165 266.561 508.215 266.056 508.135 264.308L508.065 262.858L507.375 261.253C505.285 259.844 505.235 258.212 504.815 256.247C505.805 252.282 506.855 251.491 509.515 248.338C519.705 247.398 529.465 261.344 536.225 268.65Z" fill="#282C2E"/>
<path d="M507.375 261.253C520.525 265.902 533.685 284.87 539.165 285.229C548.805 280.337 547.275 274.529 551.775 269.479C561.885 258.147 574.235 244.467 585.355 233.929C586.345 232.989 590.305 232.329 591.715 232.123C583.965 240.691 545.045 287.278 537.415 287.604C532.905 287.797 529.155 283.634 526.015 280.861L525.085 281.12C519.275 278.974 512.185 272.794 507.885 268.337C508.165 266.561 508.215 266.056 508.135 264.308L508.065 262.858L507.375 261.253Z" fill="#282C2E"/>
<path d="M508.065 262.858C511.005 265.636 524.655 278.215 526.015 280.861L525.085 281.12C519.275 278.974 512.185 272.794 507.885 268.337C508.165 266.561 508.215 266.056 508.135 264.308L508.065 262.858Z" fill="#EBC881"/>
<path d="M509.515 248.338C519.705 247.398 529.465 261.344 536.225 268.65L535.645 269.107C535.015 269.002 534.385 268.898 533.755 268.793L532.945 268.615C528.575 267.691 512.065 251.975 509.515 248.338Z" fill="#282C2E"/>
<path d="M202.685 288.787C227.875 287.95 214.075 319.122 206.795 330.773C202.915 330.899 200.705 331.639 198.145 328.797C197.545 323.911 201.295 315.988 203.115 310.717C194.585 303.416 193.665 295.969 202.685 288.787Z" fill="#282C2E"/>
<path d="M198.445 400.67C201.125 397.859 200.455 398.412 205.395 398.317C300.285 397.223 395.185 396.955 490.075 397.513L753.065 398.068C770.995 398.163 858.665 395.567 869.845 399.103L871.485 400.857L872.245 401.99C882.765 412.302 876.125 425.328 872.425 437.771C866.005 461.945 858.735 492.712 851.435 516.147C850.485 519.984 845.695 539.947 844.305 542.478C840.825 558.945 835.085 579.654 830.315 595.92C828.025 604.974 818.465 644.931 815.335 651.774C811.995 668.925 806.185 688.884 801.325 705.853C796.635 724.147 786.445 778.231 769.015 787.191C763.195 793.101 758.125 795.6 750.695 799.26L749.885 801.611C743.735 804.621 715.715 806.901 707.905 807.521C692.265 808.761 673.375 804.521 657.785 804.591L461.105 805.361L278.765 804.871L204.965 804.311C192.245 804.251 175.305 804.891 162.975 804.121C162.275 803.651 160.565 802.571 160.025 802.091L71.5851 802.141C71.0651 793.801 71.7951 772.431 72.2551 764.051L71.7852 762.381C69.8752 759.081 70.3251 756.121 71.4951 752.671L72.1952 747.819C74.0352 738.565 76.5652 730.453 79.2752 721.429C80.4452 729.793 81.4052 732.618 90.6452 731.342C92.1852 723.669 98.2252 703.204 101.415 696.543L103.235 696.056C105.055 689.806 106.385 684.427 107.825 678.073C106.145 666.824 114.895 636.217 120.285 625.703L120.755 624.807C120.295 624.061 119.835 623.316 119.375 622.571L118.825 621.749C119.525 616.658 120.665 602.251 124.635 599.854C125.685 601.841 123.695 607.604 123.035 610.217C126.245 607.035 125.065 599.024 128.665 592.936L130.105 593.766L130.905 593.807C131.305 588.939 137.645 565.657 139.335 559.691C144.715 540.697 149.435 519.954 155.225 501.218L154.955 500.035C154.475 497.52 154.075 490.057 154.715 487.984C157.685 478.331 162.735 445.061 170.895 440.721C172.485 434.409 173.965 427.689 176.385 421.684C180.905 409.639 187.135 406.175 198.445 400.67Z" fill="#EBC881"/>
<path d="M198.445 400.67C201.125 397.859 200.455 398.412 205.395 398.317C300.285 397.223 395.185 396.955 490.075 397.513L753.065 398.068C770.995 398.163 858.665 395.567 869.845 399.103L871.485 400.857L872.245 401.99C882.765 412.302 876.125 425.328 872.425 437.771C866.005 461.945 858.735 492.712 851.435 516.147C846.845 499.147 864.715 467.684 866.595 448.596C868.295 436.64 863.785 424.152 867.225 412.335C868.325 408.549 869.265 407.496 867.485 403.912C859.585 399.222 824.535 406.892 811.285 405.882C760.855 402.039 709.985 403.977 659.515 403.887L422.235 403.308L272.435 403.186C249.325 403.148 226.225 402.257 203.025 402.767C197.425 402.891 192.445 407.235 188.325 409.187C181.145 412.585 181.915 420.051 176.385 421.684C180.905 409.639 187.135 406.175 198.445 400.67Z" fill="#EBC881"/>
<path d="M198.445 400.67C201.125 397.859 200.455 398.412 205.395 398.317C300.285 397.223 395.185 396.955 490.075 397.513L753.065 398.068C770.995 398.163 858.665 395.567 869.845 399.103L871.485 400.857C812.855 399.653 751.905 400.459 693.105 400.466L381.845 400.464L255.875 400.468C239.345 400.47 214.335 401.531 198.445 400.67Z" fill="#282C2E"/>
<path d="M872.425 437.771C869.765 433.689 869.475 406.529 872.245 401.99C882.765 412.302 876.125 425.328 872.425 437.771Z" fill="#FFFFFE"/>
<path d="M688.335 801.741C701.755 803.031 738.755 802.79 750.695 799.26L749.885 801.611C743.735 804.621 715.715 806.901 707.905 807.521C692.265 808.761 673.375 804.521 657.785 804.591L461.105 805.361L278.765 804.871L204.965 804.311C192.245 804.251 175.305 804.891 162.975 804.121C162.275 803.651 160.565 802.571 160.025 802.091C165.015 802.021 170.665 802.081 175.585 801.821C196.995 802.921 226.555 802.021 248.555 802.021L389.705 802.001L582.405 801.991C617.085 801.991 653.855 802.661 688.335 801.741Z" fill="#282C2E"/>
<path d="M90.6452 731.342C92.1852 723.669 98.2252 703.204 101.415 696.543L103.235 696.056C99.7151 709.731 88.9252 758.141 82.0652 766.201C77.6352 765.791 76.4651 765.781 72.2551 764.051L71.7852 762.381C69.8752 759.081 70.3251 756.121 71.4951 752.671L72.1952 747.819C74.0352 738.565 76.5652 730.453 79.2752 721.429C80.4452 729.793 81.4052 732.618 90.6452 731.342Z" fill="#282C2E"/>
<path d="M79.2751 721.429C80.4451 729.793 81.4051 732.618 90.6451 731.342C88.9951 738.683 87.1752 745.987 85.2052 753.251C84.2452 753.701 84.8252 753.551 83.4252 753.401L83.1151 753.561C74.1051 749.971 76.2251 753.011 71.4951 752.671L72.1952 747.819C74.0352 738.565 76.5651 730.453 79.2751 721.429Z" fill="#282C2E"/>
<path d="M71.4951 752.671C76.2251 753.011 74.1051 749.971 83.1151 753.561C83.8151 757.131 83.8552 757.251 82.4052 760.471C77.5852 764.711 76.2552 762.271 71.7852 762.381C69.8752 759.081 70.3251 756.121 71.4951 752.671Z" fill="#282C2E"/>
<path d="M107.825 678.073C106.145 666.824 114.895 636.217 120.285 625.703L120.755 624.807C120.295 624.061 119.835 623.316 119.375 622.571L118.825 621.749C119.525 616.658 120.665 602.251 124.635 599.854C125.685 601.841 123.695 607.604 123.035 610.217C126.245 607.035 125.065 599.024 128.665 592.936L130.105 593.766C128.605 600.372 127.025 606.961 125.385 613.532C120.305 631.573 113.115 655.871 109.395 673.908L107.825 678.073Z" fill="#282C2E"/>
<path d="M155.225 501.218C156.475 505.179 143.835 558.444 141.805 564.317L141.875 562.924C138.205 573.76 135.615 584.559 132.115 594.815L130.905 593.807C131.305 588.939 137.645 565.657 139.335 559.691C144.715 540.697 149.435 519.954 155.225 501.218Z" fill="#EBC881"/>
<path d="M154.955 500.035C154.475 497.52 154.075 490.057 154.715 487.984C157.685 478.331 162.735 445.061 170.895 440.721C166.225 458.513 160.545 483.046 154.955 500.035Z" fill="#282C2E"/>
<path d="M801.325 705.853C797.525 694.315 807.275 661.268 815.335 651.774C811.995 668.925 806.185 688.884 801.325 705.853Z" fill="#EBC881"/>
<path d="M125.385 613.531C127.135 619.975 119.825 643.4 118.915 651.42C118.555 654.62 116.705 666.674 115.915 669.591L114.565 670.557C113.175 667.586 114.705 663.659 115.825 660.333C115.505 661.344 110.885 674.182 111.005 674.039L109.395 673.907C113.115 655.87 120.305 631.572 125.385 613.531Z" fill="#EBC881"/>
<path d="M688.335 801.741C690.795 798.411 733.605 802.211 741.595 799.061C749.125 796.101 761.165 789.911 768.205 787.471L769.015 787.191C763.195 793.101 758.125 795.6 750.695 799.26C738.755 802.79 701.755 803.031 688.335 801.741Z" fill="#EBC881"/>
<path d="M830.315 595.92C826.385 584.234 836.385 565.901 838.945 554.141C839.845 550.01 841.495 545.692 844.305 542.478C840.825 558.945 835.085 579.654 830.315 595.92Z" fill="#EBC881"/>
<path d="M233.645 537.327C253.905 535.177 281.275 537.265 302.265 537.135L484.735 537.146C569.665 537.312 654.825 536.267 739.795 536.637C747.965 536.673 761.395 535.349 766.085 543.325C766.635 548.352 766.445 552.336 763.605 556.61C759.625 559.966 743.175 559.181 737.065 559.11C728.315 559.694 717.335 558.846 708.365 559.321C684.645 560.576 661.495 560.113 637.785 560.082L485.135 560.233L342.205 560.135C304.215 560.337 266.415 560.658 228.405 559.052C217.095 558.575 207.515 552.065 217.405 540.928C221.535 536.267 227.785 537.197 233.645 537.327Z" fill="#EBC881"/>
<path d="M220.615 539.769L569.765 539.759L692.935 539.753C711.935 539.748 731.065 539.6 750.075 539.591C761.525 539.585 771.255 545.441 759.725 556.344C743.985 557.753 710.675 556.64 693.165 556.633L557.505 556.615L335.515 556.551C300.815 556.535 266.115 556.501 231.415 556.658C219.245 556.713 209.385 551.858 220.615 539.769Z" fill="#282C2E"/>
<path d="M558.135 542.374C562.225 542.132 566.565 542.167 570.685 542.261C632.845 543.683 694.995 542.235 757.165 542.949C758.795 542.968 759.325 543.34 760.675 544.107C762.965 547.707 763.215 548.754 760.555 552.191C757.815 553.695 754.245 554.608 751.115 554.527C657.795 552.141 564.635 555.56 471.365 553.267C457.805 552.934 444.485 554.12 431.025 554.321C423.305 551.18 351.945 554.372 338.965 554.222C309.925 553.907 280.585 555.476 251.635 552.934C243.825 552.25 224.435 553.462 220.805 546.313L222.075 543.841C227.775 540.379 426.225 543.841 451.155 542.74C473.285 541.763 532.245 543.459 558.135 542.374Z" fill="#282C2E"/>
<path d="M170.565 723.213L170.845 721.816C175.465 719.796 180.845 719.817 185.815 719.744C209.475 719.396 233.315 720.396 257.015 720.38C302.005 720.35 703.235 718.516 710.125 721.378C712.565 722.39 714.665 724.049 716.515 725.904C718.785 732.813 717.165 736.369 710.705 740.674C697.755 743.497 666.925 742.867 652.775 742.881L557.835 742.749C434.895 742.879 311.705 743.043 188.765 742.119C184.675 742.088 173.815 741.709 170.355 740.439C167.575 737.566 166.405 736.854 165.555 733.036L166.135 731.203L170.565 723.213Z" fill="#282C2E"/>
<path d="M170.565 723.213L170.845 721.816C175.465 719.796 180.845 719.817 185.815 719.744C209.475 719.396 233.315 720.396 257.015 720.38C302.005 720.35 703.235 718.516 710.125 721.378C712.565 722.39 714.665 724.049 716.515 725.904C718.785 732.813 717.165 736.369 710.705 740.674C697.755 743.497 666.925 742.867 652.775 742.881L557.835 742.749C434.895 742.879 311.705 743.043 188.765 742.119C184.675 742.088 173.815 741.709 170.355 740.439C167.575 737.566 166.405 736.854 165.555 733.036L166.135 731.203C168.155 734.5 170.435 739.058 174.745 739.213C195.415 739.952 216.235 739.574 236.935 739.531L360.805 739.491L595.825 739.493C630.025 739.498 664.245 739.282 698.425 739.893C705.965 740.028 714.175 738.251 715.155 729.672C713.635 725.865 710.645 723.024 706.295 722.985C683.655 722.778 660.995 722.884 638.345 722.883L496.065 722.877L284.495 722.883C248.815 722.877 205.735 721.793 170.565 723.213Z" fill="#EBC881"/>
<path d="M701.145 725.46C705.355 726.468 713.015 725.996 712.545 733.468C710.025 736.45 706.805 736.816 702.925 736.91C667.385 737.774 631.405 736.468 595.875 736.879C509.005 737.525 422.135 737.325 335.265 736.278C288.265 735.993 241.335 737.541 194.325 735.047C190.185 734.827 188.125 734.982 184.145 736.328C178.655 736.466 174.605 737.27 170.575 732.979L170.695 731.132C173.235 728.393 179.425 725.544 183.025 725.652C216.115 726.651 249.795 726.869 282.925 726.671L596.605 726.458C625.165 726.381 653.685 727.308 682.235 726.527C688.495 726.356 694.965 726.482 701.145 725.46Z" fill="#282C2E"/>
<path d="M249.445 495.146C243.155 495.31 231.935 495.082 232.495 485.578C232.595 483.69 233.525 481.944 235.045 480.821C239.955 477.12 266.645 478.466 273.835 478.467L349.925 478.512L662.955 478.462L741.725 478.381C752.625 478.365 764.095 477.969 774.885 478.819C781.545 479.343 783.895 492.057 776.845 494.217C771.405 495.882 762.065 495.19 756.185 495.082L756.725 495.656L756.395 496.855C752.165 497.711 736.685 497.395 731.385 497.316C721.685 496.71 710.935 499.322 701.415 498.787C657.775 496.337 613.755 497.288 569.995 497.289L345.865 497.318L278.485 497.308C269.325 497.304 251.405 497.79 242.795 496.872C244.185 495.594 247.225 495.509 249.445 495.146Z" fill="#282C2E"/>
<path d="M249.445 495.146L756.185 495.082L756.725 495.656L756.395 496.855C752.165 497.711 736.685 497.396 731.385 497.317C721.685 496.711 710.935 499.322 701.415 498.787C657.775 496.337 613.755 497.288 569.995 497.289L345.865 497.318L278.485 497.308C269.325 497.304 251.405 497.79 242.795 496.872C244.185 495.594 247.225 495.509 249.445 495.146Z" fill="#EBC881"/>
<path d="M458.835 481.369C510.925 483.296 562.855 480.96 615.025 482.393C648.605 483.315 683.805 479.02 717.525 482.386C735.195 484.15 752.565 483.062 770.195 483.616C773.285 483.713 774.785 484.537 776.555 486.744L776.095 488.059C769.995 493.583 761.765 491.818 754.495 492.044C690.515 494.031 626.435 493.359 562.395 493.331L389.645 493.371C352.675 493.373 315.825 493.44 278.865 492.387C270.475 492.148 243.975 493.304 238.365 487.246L239.705 485.771C256.885 479.244 342.315 482.265 366.205 482.345C397.085 482.461 427.965 482.135 458.835 481.369Z" fill="#282C2E"/>
<path d="M188.095 661.827C215.895 660.648 253.115 661.716 281.605 661.717L465.465 661.729L638.065 661.737C662.845 661.735 687.635 661.864 712.415 661.431C718.605 661.323 724.545 661.58 729.845 665.169C733.385 670.861 730.865 674.345 726.315 678.688L379.155 678.608L256.125 678.626C236.655 678.633 217.025 678.812 197.545 678.726C185.955 678.675 177.135 672.71 188.095 661.827Z" fill="#282C2E"/>
<path d="M189.275 664.23L548.085 664.488C590.105 664.228 632.125 664.28 674.155 664.644C683.515 664.814 720.805 663.376 725.455 669.464L725.075 671.287C721.225 674.278 720.665 673.493 715.145 674.317C697.435 674.056 676.245 675.175 657.785 675.19L473.195 675.763C463.865 675.847 454.585 674.931 445.205 674.956C379.005 675.42 312.805 675.398 246.605 674.89C231.885 674.789 217.265 675.22 202.555 675.573C196.985 675.707 188.155 676.547 186.085 670.445C186.705 667.052 186.955 666.943 189.275 664.23Z" fill="#282C2E"/>
<path d="M204.735 600.866L557.325 600.9L675.365 600.883C690.225 600.862 726.625 599.731 743.235 602.059C745.215 602.337 747.565 605.979 748.285 608.294C746.125 619.648 729.985 617.569 721.145 617.361L374.965 617.324L266.615 617.318C249.075 617.319 231.315 617.519 213.755 617.318C202.055 617.184 195.015 611.472 204.735 600.866Z" fill="#282C2E"/>
<path d="M205.865 603.311L580.865 604.05L692.895 603.54C704.555 603.561 732.165 601.259 743.515 606.539C745.005 607.231 744.945 608.775 745.045 610.239C741.935 615.229 739.785 614.544 734.225 614.381L732.735 614.331C727.165 612.475 670.435 613.766 659.245 613.657L271.465 613.441C251.625 613.496 232.255 614.931 212.455 615.1C207.515 615.142 205.115 614.641 203.165 609.902C203.425 606.323 203.575 606.229 205.865 603.311Z" fill="#282C2E"/>
<path d="M255.695 819.021L253.365 817.931C258.625 813.471 302.125 815.651 311.585 815.621L473.245 815.691C512.835 815.231 552.435 815.291 592.025 815.841C600.825 815.921 642.815 814.081 647.375 817.681C645.805 819.051 646.405 818.561 644.095 819.071L646.585 820.071C646.805 821.281 647.085 822.331 647.095 823.521L648.455 822.641C650.795 826.591 650.945 1015.2 649.515 1034.56C639.975 1038.87 628.255 1026.52 622.355 1020.61L622.125 1018.9C617.555 1014.61 595.035 1003.14 587.985 998.411C582.855 995.861 576.545 992.141 571.625 989.071C541.965 970.531 509.275 954.311 479.985 935.431C473.085 932.271 457.735 922.711 449.935 918.361L435.075 926.611L301.235 1005.27C284.855 1014.34 268.765 1023.9 252.975 1033.94C253.665 981.341 253.095 926.841 252.945 874.151C252.895 865.011 252.285 826.691 253.505 820.201L255.695 819.021Z" fill="#EBC881"/>
<path d="M252.945 874.151C261.165 874.411 293.545 875.631 300.525 874.091C301.975 917.051 299.225 962.821 301.235 1005.27C284.855 1014.34 268.765 1023.9 252.975 1033.94C253.665 981.341 253.095 926.841 252.945 874.151Z" fill="#FFFFFE"/>
<path d="M255.695 819.021L253.365 817.931C258.625 813.471 302.125 815.651 311.585 815.621L473.245 815.691C512.835 815.231 552.435 815.291 592.025 815.841C600.825 815.921 642.815 814.081 647.375 817.681C645.805 819.051 646.405 818.561 644.095 819.071L646.585 820.071C646.805 821.281 647.085 822.331 647.095 823.521L648.455 822.641C650.795 826.591 650.945 1015.2 649.515 1034.56C639.975 1038.87 628.255 1026.52 622.355 1020.61L622.125 1018.9C626.935 1021.58 632.715 1025.02 637.555 1027.43C639.365 1028.72 640.615 1029.68 642.615 1030.72C643.205 1030.26 644.415 1028.94 644.985 1028.36C645.335 1018.66 641.075 1005.43 641.795 996.411C645.085 955.721 643.755 914.431 643.625 873.591C643.575 856.701 644.745 838.921 644.345 822.341C619.625 821.511 595.595 822.281 570.895 822.311L426.635 822.261C389.165 822.111 351.525 821.431 314.025 822.311C297.455 822.701 274.885 821.561 259.085 824.591C257.415 826.581 256.205 828.491 255.995 831.111C251.315 889.081 268.995 867.391 300.525 874.091C293.545 875.631 261.165 874.411 252.945 874.151C252.895 865.011 252.285 826.691 253.505 820.201L255.695 819.021Z" fill="#EBC881"/>
<path d="M255.695 819.021L253.365 817.931C258.625 813.471 302.125 815.651 311.585 815.621L473.245 815.691C512.835 815.231 552.435 815.291 592.025 815.841C600.825 815.921 642.815 814.081 647.375 817.681C645.805 819.051 646.405 818.561 644.095 819.071C631.915 820.371 603.725 819.601 590.715 819.601L486.115 819.581L337.755 819.601C313.055 819.601 279.785 820.531 255.695 819.021Z" fill="#282C2E"/>
<path d="M647.095 823.521L648.455 822.641C650.795 826.591 650.945 1015.2 649.515 1034.56C639.975 1038.87 628.255 1026.52 622.355 1020.61L622.125 1018.9C626.935 1021.58 632.715 1025.02 637.555 1027.43C639.365 1028.72 640.615 1029.68 642.615 1030.72C644.005 1032.12 644.095 1032 645.985 1032.71C648.405 1029.47 647.095 843.771 647.095 823.521Z" fill="#282C2E"/>
<path d="M587.985 998.411L589.795 997.561C592.495 998.811 608.795 1006.81 610.665 1007.39L609.405 1006.42C615.045 1009.09 636.635 1020.96 637.555 1027.43C632.715 1025.02 626.935 1021.58 622.125 1018.9C617.555 1014.61 595.035 1003.14 587.985 998.411Z" fill="#EBC881"/>
<path d="M435.075 926.611C440.295 910.661 469.765 920.761 475.825 927.931C473.395 928.371 472.895 928.091 470.495 927.601C474.095 929.481 478.475 931.421 479.985 935.431C473.085 932.271 457.735 922.711 449.935 918.361L435.075 926.611Z" fill="#EBC881"/>
</svg>
